<svg width="48" height="48" viewBox="0 0 48 48" fill="none" xmlns="http://www.w3.org/2000/svg">
<path d="M43.9416 2.91895C44.3143 2.91895 44.6849 2.92815 45.053 2.94677C45.0716 3.31498 45.0811 3.68562 45.0811 4.05846C45.0811 13.0195 39.637 20.7089 31.8759 24C39.637 27.2911 45.0811 34.9805 45.0811 43.9416C45.0811 44.3143 45.0719 44.6849 45.0533 45.053C44.6851 45.0716 44.3144 45.0811 43.9416 45.0811C34.9805 45.0811 27.2911 39.637 24 31.8759C20.7089 39.637 13.0195 45.0811 4.05846 45.0811C3.68562 45.0811 3.31498 45.0716 2.94677 45.053C2.92815 44.6849 2.91895 44.3143 2.91895 43.9416C2.91895 34.9806 8.36286 27.2912 16.1238 24C8.36286 20.7089 2.91895 13.0194 2.91895 4.05846C2.91895 3.68562 2.92842 3.31498 2.94704 2.94677C3.31516 2.92815 3.68572 2.91895 4.05846 2.91895C13.0194 2.91895 20.7089 8.36286 24 16.1238C27.2912 8.36286 34.9806 2.91895 43.9416 2.91895Z" fill="url(#paint0_linear_452_3008)"/>
<defs>
<linearGradient id="paint0_linear_452_3008" x1="24" y1="2.91895" x2="24" y2="45.0811" gradientUnits="userSpaceOnUse">
<stop offset="0.3" stop-color="#E33C54"/>
<stop offset="1" stop-color="#B2FF18"/>
</linearGradient>
</defs>
</svg>
