<svg width="232" height="238" viewBox="0 0 232 238" fill="none" xmlns="http://www.w3.org/2000/svg">
<path d="M0 4.00001C0 1.79087 1.79086 0 4 0H227.333C229.542 0 231.333 1.79086 231.333 4V233.75C231.333 235.959 229.542 237.75 227.333 237.75H4C1.79086 237.75 0 235.959 0 233.75V4.00001Z" fill="#3F75FF"/>
<path d="M23.104 197.75L20.448 193.19H18.688V197.75H17.232V186.598H20.832C21.6747 186.598 22.384 186.742 22.96 187.03C23.5467 187.318 23.984 187.707 24.272 188.198C24.56 188.689 24.704 189.249 24.704 189.878C24.704 190.646 24.48 191.323 24.032 191.91C23.5947 192.497 22.9333 192.886 22.048 193.078L24.848 197.75H23.104ZM18.688 192.022H20.832C21.6213 192.022 22.2133 191.83 22.608 191.446C23.0027 191.051 23.2 190.529 23.2 189.878C23.2 189.217 23.0027 188.705 22.608 188.342C22.224 187.979 21.632 187.798 20.832 187.798H18.688V192.022ZM30.7904 197.894C29.969 197.894 29.2224 197.707 28.5504 197.334C27.889 196.961 27.3664 196.433 26.9824 195.75C26.609 195.057 26.4224 194.257 26.4224 193.35C26.4224 192.454 26.6144 191.665 26.9984 190.982C27.393 190.289 27.9264 189.761 28.5984 189.398C29.2704 189.025 30.0224 188.838 30.8544 188.838C31.6864 188.838 32.4384 189.025 33.1104 189.398C33.7824 189.761 34.3104 190.283 34.6944 190.966C35.089 191.649 35.2864 192.443 35.2864 193.35C35.2864 194.257 35.0837 195.057 34.6784 195.75C34.2837 196.433 33.745 196.961 33.0624 197.334C32.3797 197.707 31.6224 197.894 30.7904 197.894ZM30.7904 196.614C31.313 196.614 31.8037 196.491 32.2624 196.246C32.721 196.001 33.089 195.633 33.3664 195.142C33.6544 194.651 33.7984 194.054 33.7984 193.35C33.7984 192.646 33.6597 192.049 33.3824 191.558C33.105 191.067 32.7424 190.705 32.2944 190.47C31.8464 190.225 31.361 190.102 30.8384 190.102C30.305 190.102 29.8144 190.225 29.3664 190.47C28.929 190.705 28.577 191.067 28.3104 191.558C28.0437 192.049 27.9104 192.646 27.9104 193.35C27.9104 194.065 28.0384 194.667 28.2944 195.158C28.561 195.649 28.913 196.017 29.3504 196.262C29.7877 196.497 30.2677 196.614 30.7904 196.614ZM44.7528 188.982L39.4728 201.878H37.9688L39.6968 197.654L36.1608 188.982H37.7768L40.5288 196.086L43.2488 188.982H44.7528ZM45.6724 193.334C45.6724 192.438 45.8537 191.654 46.2164 190.982C46.579 190.299 47.075 189.771 47.7044 189.398C48.3444 189.025 49.0537 188.838 49.8324 188.838C50.6004 188.838 51.267 189.003 51.8324 189.334C52.3977 189.665 52.819 190.081 53.0964 190.582V188.982H54.5684V197.75H53.0964V196.118C52.8084 196.63 52.3764 197.057 51.8004 197.398C51.235 197.729 50.5737 197.894 49.8164 197.894C49.0377 197.894 48.3337 197.702 47.7044 197.318C47.075 196.934 46.579 196.395 46.2164 195.702C45.8537 195.009 45.6724 194.219 45.6724 193.334ZM53.0964 193.35C53.0964 192.689 52.963 192.113 52.6964 191.622C52.4297 191.131 52.067 190.758 51.6084 190.502C51.1604 190.235 50.6644 190.102 50.1204 190.102C49.5764 190.102 49.0804 190.23 48.6324 190.486C48.1844 190.742 47.827 191.115 47.5604 191.606C47.2937 192.097 47.1604 192.673 47.1604 193.334C47.1604 194.006 47.2937 194.593 47.5604 195.094C47.827 195.585 48.1844 195.963 48.6324 196.23C49.0804 196.486 49.5764 196.614 50.1204 196.614C50.6644 196.614 51.1604 196.486 51.6084 196.23C52.067 195.963 52.4297 195.585 52.6964 195.094C52.963 194.593 53.0964 194.011 53.0964 193.35ZM58.4849 185.91V197.75H57.0289V185.91H58.4849ZM66.688 190.614C66.9867 190.091 67.424 189.665 68 189.334C68.576 189.003 69.232 188.838 69.968 188.838C70.7573 188.838 71.4667 189.025 72.096 189.398C72.7253 189.771 73.2213 190.299 73.584 190.982C73.9467 191.654 74.128 192.438 74.128 193.334C74.128 194.219 73.9467 195.009 73.584 195.702C73.2213 196.395 72.72 196.934 72.08 197.318C71.4507 197.702 70.7467 197.894 69.968 197.894C69.2107 197.894 68.544 197.729 67.968 197.398C67.4027 197.067 66.976 196.646 66.688 196.134V197.75H65.232V185.91H66.688V190.614ZM72.64 193.334C72.64 192.673 72.5067 192.097 72.24 191.606C71.9733 191.115 71.6107 190.742 71.152 190.486C70.704 190.23 70.208 190.102 69.664 190.102C69.1307 190.102 68.6347 190.235 68.176 190.502C67.728 190.758 67.3653 191.137 67.088 191.638C66.8213 192.129 66.688 192.699 66.688 193.35C66.688 194.011 66.8213 194.593 67.088 195.094C67.3653 195.585 67.728 195.963 68.176 196.23C68.6347 196.486 69.1307 196.614 69.664 196.614C70.208 196.614 70.704 196.486 71.152 196.23C71.6107 195.963 71.9733 195.585 72.24 195.094C72.5067 194.593 72.64 194.006 72.64 193.334ZM77.5005 185.91V197.75H76.0445V185.91H77.5005ZM87.758 188.982V197.75H86.302V196.454C86.0247 196.902 85.6353 197.254 85.134 197.51C84.6433 197.755 84.0993 197.878 83.502 197.878C82.8193 197.878 82.206 197.739 81.662 197.462C81.118 197.174 80.686 196.747 80.366 196.182C80.0567 195.617 79.902 194.929 79.902 194.118V188.982H81.342V193.926C81.342 194.79 81.5607 195.457 81.998 195.926C82.4353 196.385 83.0327 196.614 83.79 196.614C84.5687 196.614 85.182 196.374 85.63 195.894C86.078 195.414 86.302 194.715 86.302 193.798V188.982H87.758ZM98.2164 193.03C98.2164 193.307 98.2004 193.601 98.1684 193.91H91.1604C91.2137 194.774 91.507 195.451 92.0404 195.942C92.5844 196.422 93.2404 196.662 94.0084 196.662C94.6377 196.662 95.1604 196.518 95.5764 196.23C96.003 195.931 96.3017 195.537 96.4724 195.046H98.0404C97.8057 195.889 97.3364 196.577 96.6324 197.11C95.9284 197.633 95.0537 197.894 94.0084 197.894C93.1764 197.894 92.4297 197.707 91.7684 197.334C91.1177 196.961 90.6057 196.433 90.2324 195.75C89.859 195.057 89.6724 194.257 89.6724 193.35C89.6724 192.443 89.8537 191.649 90.2164 190.966C90.579 190.283 91.0857 189.761 91.7364 189.398C92.3977 189.025 93.155 188.838 94.0084 188.838C94.8404 188.838 95.5764 189.019 96.2164 189.382C96.8564 189.745 97.347 190.246 97.6884 190.886C98.0404 191.515 98.2164 192.23 98.2164 193.03ZM96.7124 192.726C96.7124 192.171 96.5897 191.697 96.3444 191.302C96.099 190.897 95.763 190.593 95.3364 190.39C94.9204 190.177 94.4564 190.07 93.9444 190.07C93.2084 190.07 92.579 190.305 92.0564 190.774C91.5444 191.243 91.251 191.894 91.1764 192.726H96.7124Z" fill="#121212"/>
<path d="M23.548 211.23L23.092 213.39H24.748V214.35H22.888L22.372 216.75H21.328L21.844 214.35H19.324L18.808 216.75H17.764L18.28 214.35H16.396V213.39H18.484L18.94 211.23H17.08V210.27H19.144L19.66 207.87H20.704L20.188 210.27H22.708L23.224 207.87H24.268L23.752 210.27H25.42V211.23H23.548ZM22.504 211.23H19.984L19.528 213.39H22.048L22.504 211.23ZM26.7981 210.258C26.8541 209.522 27.1381 208.946 27.6501 208.53C28.1621 208.114 28.8261 207.906 29.6421 207.906C30.1861 207.906 30.6541 208.006 31.0461 208.206C31.4461 208.398 31.7461 208.662 31.9461 208.998C32.1541 209.334 32.2581 209.714 32.2581 210.138C32.2581 210.634 32.1141 211.062 31.8261 211.422C31.5461 211.782 31.1781 212.014 30.7221 212.118V212.178C31.2421 212.306 31.6541 212.558 31.9581 212.934C32.2621 213.31 32.4141 213.802 32.4141 214.41C32.4141 214.866 32.3101 215.278 32.1021 215.646C31.8941 216.006 31.5821 216.29 31.1661 216.498C30.7501 216.706 30.2501 216.81 29.6661 216.81C28.8181 216.81 28.1221 216.59 27.5781 216.15C27.0341 215.702 26.7301 215.07 26.6661 214.254H27.7221C27.7781 214.734 27.9741 215.126 28.3101 215.43C28.6461 215.734 29.0941 215.886 29.6541 215.886C30.2141 215.886 30.6381 215.742 30.9261 215.454C31.2221 215.158 31.3701 214.778 31.3701 214.314C31.3701 213.714 31.1701 213.282 30.7701 213.018C30.3701 212.754 29.7661 212.622 28.9581 212.622H28.6821V211.71H28.9701C29.7061 211.702 30.2621 211.582 30.6381 211.35C31.0141 211.11 31.2021 210.742 31.2021 210.246C31.2021 209.822 31.0621 209.482 30.7821 209.226C30.5101 208.97 30.1181 208.842 29.6061 208.842C29.1101 208.842 28.7101 208.97 28.4061 209.226C28.1021 209.482 27.9221 209.826 27.8661 210.258H26.7981ZM36.7445 211.074H35.3645V216.75H34.2725V211.074H33.4205V210.174H34.2725V209.706C34.2725 208.97 34.4605 208.434 34.8365 208.098C35.2205 207.754 35.8325 207.582 36.6725 207.582V208.494C36.1925 208.494 35.8525 208.59 35.6525 208.782C35.4605 208.966 35.3645 209.274 35.3645 209.706V210.174H36.7445V211.074ZM43.1778 208.926L39.8418 216.75H38.7378L42.1218 209.034H37.4897V208.098H43.1778V208.926ZM49.9205 209.022H45.7085V211.758C45.8925 211.502 46.1645 211.294 46.5245 211.134C46.8845 210.966 47.2725 210.882 47.6885 210.882C48.3525 210.882 48.8925 211.022 49.3085 211.302C49.7245 211.574 50.0205 211.93 50.1965 212.37C50.3805 212.802 50.4725 213.262 50.4725 213.75C50.4725 214.326 50.3645 214.842 50.1485 215.298C49.9325 215.754 49.6005 216.114 49.1525 216.378C48.7125 216.642 48.1645 216.774 47.5085 216.774C46.6685 216.774 45.9885 216.558 45.4685 216.126C44.9485 215.694 44.6325 215.118 44.5205 214.398H45.5885C45.6925 214.854 45.9125 215.21 46.2485 215.466C46.5845 215.722 47.0085 215.85 47.5205 215.85C48.1525 215.85 48.6285 215.662 48.9485 215.286C49.2685 214.902 49.4285 214.398 49.4285 213.774C49.4285 213.15 49.2685 212.67 48.9485 212.334C48.6285 211.99 48.1565 211.818 47.5325 211.818C47.1085 211.818 46.7365 211.922 46.4165 212.13C46.1045 212.33 45.8765 212.606 45.7325 212.958H44.7005V208.062H49.9205V209.022ZM54.7797 211.074H53.3997V216.75H52.3077V211.074H51.4557V210.174H52.3077V209.706C52.3077 208.97 52.4957 208.434 52.8717 208.098C53.2557 207.754 53.8677 207.582 54.7077 207.582V208.494C54.2277 208.494 53.8877 208.59 53.6877 208.782C53.4957 208.966 53.3997 209.274 53.3997 209.706V210.174H54.7797V211.074ZM58.7289 211.074H57.3489V216.75H56.2569V211.074H55.4049V210.174H56.2569V209.706C56.2569 208.97 56.4449 208.434 56.8209 208.098C57.2049 207.754 57.8169 207.582 58.6569 207.582V208.494C58.1769 208.494 57.8369 208.59 57.6369 208.782C57.4449 208.966 57.3489 209.274 57.3489 209.706V210.174H58.7289V211.074Z" fill="#121212"/>
</svg>
