<svg width="232" height="238" viewBox="0 0 232 238" fill="none" xmlns="http://www.w3.org/2000/svg">
<path d="M0 4.00001C0 1.79087 1.79086 0 4 0H227.333C229.542 0 231.333 1.79086 231.333 4V233.75C231.333 235.959 229.542 237.75 227.333 237.75H4C1.79086 237.75 0 235.959 0 233.75V4.00001Z" fill="#181818"/>
<path d="M16.688 192.166C16.688 191.078 16.9333 190.102 17.424 189.238C17.9147 188.363 18.5813 187.681 19.424 187.19C20.2773 186.699 21.2213 186.454 22.256 186.454C23.472 186.454 24.5333 186.747 25.44 187.334C26.3467 187.921 27.008 188.753 27.424 189.83H25.68C25.3707 189.158 24.9227 188.641 24.336 188.278C23.76 187.915 23.0667 187.734 22.256 187.734C21.4773 187.734 20.7787 187.915 20.16 188.278C19.5413 188.641 19.056 189.158 18.704 189.83C18.352 190.491 18.176 191.27 18.176 192.166C18.176 193.051 18.352 193.83 18.704 194.502C19.056 195.163 19.5413 195.675 20.16 196.038C20.7787 196.401 21.4773 196.582 22.256 196.582C23.0667 196.582 23.76 196.406 24.336 196.054C24.9227 195.691 25.3707 195.174 25.68 194.502H27.424C27.008 195.569 26.3467 196.395 25.44 196.982C24.5333 197.558 23.472 197.846 22.256 197.846C21.2213 197.846 20.2773 197.606 19.424 197.126C18.5813 196.635 17.9147 195.958 17.424 195.094C16.9333 194.23 16.688 193.254 16.688 192.166ZM33.9434 188.822C34.6047 188.822 35.202 188.966 35.7354 189.254C36.2687 189.531 36.6847 189.953 36.9834 190.518C37.2927 191.083 37.4474 191.771 37.4474 192.582V197.75H36.0074V192.79C36.0074 191.915 35.7887 191.249 35.3514 190.79C34.914 190.321 34.3167 190.086 33.5594 190.086C32.7914 190.086 32.178 190.326 31.7194 190.806C31.2714 191.286 31.0474 191.985 31.0474 192.902V197.75H29.5914V185.91H31.0474V190.23C31.3354 189.782 31.73 189.435 32.2314 189.19C32.7434 188.945 33.314 188.822 33.9434 188.822ZM39.2818 193.334C39.2818 192.438 39.4631 191.654 39.8258 190.982C40.1884 190.299 40.6844 189.771 41.3138 189.398C41.9538 189.025 42.6631 188.838 43.4418 188.838C44.2098 188.838 44.8764 189.003 45.4418 189.334C46.0071 189.665 46.4284 190.081 46.7058 190.582V188.982H48.1778V197.75H46.7058V196.118C46.4178 196.63 45.9858 197.057 45.4098 197.398C44.8444 197.729 44.1831 197.894 43.4258 197.894C42.6471 197.894 41.9431 197.702 41.3138 197.318C40.6844 196.934 40.1884 196.395 39.8258 195.702C39.4631 195.009 39.2818 194.219 39.2818 193.334ZM46.7058 193.35C46.7058 192.689 46.5724 192.113 46.3058 191.622C46.0391 191.131 45.6764 190.758 45.2178 190.502C44.7698 190.235 44.2738 190.102 43.7298 190.102C43.1858 190.102 42.6898 190.23 42.2418 190.486C41.7938 190.742 41.4364 191.115 41.1698 191.606C40.9031 192.097 40.7698 192.673 40.7698 193.334C40.7698 194.006 40.9031 194.593 41.1698 195.094C41.4364 195.585 41.7938 195.963 42.2418 196.23C42.6898 196.486 43.1858 196.614 43.7298 196.614C44.2738 196.614 44.7698 196.486 45.2178 196.23C45.6764 195.963 46.0391 195.585 46.3058 195.094C46.5724 194.593 46.7058 194.011 46.7058 193.35ZM52.0943 190.406C52.3503 189.905 52.7129 189.515 53.1823 189.238C53.6623 188.961 54.2436 188.822 54.9263 188.822V190.326H54.5423C52.9103 190.326 52.0943 191.211 52.0943 192.982V197.75H50.6383V188.982H52.0943V190.406ZM56.063 193.35C56.063 192.443 56.2443 191.654 56.607 190.982C56.9697 190.299 57.471 189.771 58.111 189.398C58.7617 189.025 59.503 188.838 60.335 188.838C61.4123 188.838 62.2977 189.099 62.991 189.622C63.695 190.145 64.159 190.87 64.383 191.798H62.815C62.6657 191.265 62.3723 190.843 61.935 190.534C61.5083 190.225 60.975 190.07 60.335 190.07C59.503 190.07 58.831 190.358 58.319 190.934C57.807 191.499 57.551 192.305 57.551 193.35C57.551 194.406 57.807 195.222 58.319 195.798C58.831 196.374 59.503 196.662 60.335 196.662C60.975 196.662 61.5083 196.513 61.935 196.214C62.3617 195.915 62.655 195.489 62.815 194.934H64.383C64.1483 195.83 63.679 196.55 62.975 197.094C62.271 197.627 61.391 197.894 60.335 197.894C59.503 197.894 58.7617 197.707 58.111 197.334C57.471 196.961 56.9697 196.433 56.607 195.75C56.2443 195.067 56.063 194.267 56.063 193.35ZM70.1498 197.894C69.3284 197.894 68.5818 197.707 67.9098 197.334C67.2484 196.961 66.7258 196.433 66.3418 195.75C65.9684 195.057 65.7818 194.257 65.7818 193.35C65.7818 192.454 65.9738 191.665 66.3578 190.982C66.7524 190.289 67.2858 189.761 67.9578 189.398C68.6298 189.025 69.3818 188.838 70.2138 188.838C71.0458 188.838 71.7978 189.025 72.4698 189.398C73.1418 189.761 73.6698 190.283 74.0538 190.966C74.4484 191.649 74.6458 192.443 74.6458 193.35C74.6458 194.257 74.4431 195.057 74.0378 195.75C73.6431 196.433 73.1044 196.961 72.4218 197.334C71.7391 197.707 70.9818 197.894 70.1498 197.894ZM70.1498 196.614C70.6724 196.614 71.1631 196.491 71.6218 196.246C72.0804 196.001 72.4484 195.633 72.7258 195.142C73.0138 194.651 73.1578 194.054 73.1578 193.35C73.1578 192.646 73.0191 192.049 72.7418 191.558C72.4644 191.067 72.1018 190.705 71.6538 190.47C71.2058 190.225 70.7204 190.102 70.1978 190.102C69.6644 190.102 69.1738 190.225 68.7258 190.47C68.2884 190.705 67.9364 191.067 67.6698 191.558C67.4031 192.049 67.2698 192.646 67.2698 193.35C67.2698 194.065 67.3978 194.667 67.6538 195.158C67.9204 195.649 68.2724 196.017 68.7098 196.262C69.1471 196.497 69.6271 196.614 70.1498 196.614ZM76.0161 193.334C76.0161 192.438 76.1975 191.654 76.5601 190.982C76.9228 190.299 77.4188 189.771 78.0481 189.398C78.6881 189.025 79.3975 188.838 80.1761 188.838C80.9441 188.838 81.6108 189.003 82.1761 189.334C82.7415 189.665 83.1628 190.081 83.4401 190.582V188.982H84.9121V197.75H83.4401V196.118C83.1521 196.63 82.7201 197.057 82.1441 197.398C81.5788 197.729 80.9175 197.894 80.1601 197.894C79.3815 197.894 78.6775 197.702 78.0481 197.318C77.4188 196.934 76.9228 196.395 76.5601 195.702C76.1975 195.009 76.0161 194.219 76.0161 193.334ZM83.4401 193.35C83.4401 192.689 83.3068 192.113 83.0401 191.622C82.7735 191.131 82.4108 190.758 81.9521 190.502C81.5041 190.235 81.0081 190.102 80.4641 190.102C79.9201 190.102 79.4241 190.23 78.9761 190.486C78.5281 190.742 78.1708 191.115 77.9041 191.606C77.6375 192.097 77.5041 192.673 77.5041 193.334C77.5041 194.006 77.6375 194.593 77.9041 195.094C78.1708 195.585 78.5281 195.963 78.9761 196.23C79.4241 196.486 79.9201 196.614 80.4641 196.614C81.0081 196.614 81.5041 196.486 81.9521 196.23C82.4108 195.963 82.7735 195.585 83.0401 195.094C83.3068 194.593 83.4401 194.011 83.4401 193.35ZM88.8286 185.91V197.75H87.3726V185.91H88.8286ZM101.16 192.006C101.565 192.07 101.933 192.235 102.264 192.502C102.605 192.769 102.872 193.099 103.064 193.494C103.266 193.889 103.368 194.31 103.368 194.758C103.368 195.323 103.224 195.835 102.936 196.294C102.648 196.742 102.226 197.099 101.672 197.366C101.128 197.622 100.482 197.75 99.7358 197.75H95.5758V186.598H99.5758C100.333 186.598 100.978 186.726 101.512 186.982C102.045 187.227 102.445 187.563 102.712 187.99C102.978 188.417 103.112 188.897 103.112 189.43C103.112 190.091 102.93 190.641 102.568 191.078C102.216 191.505 101.746 191.814 101.16 192.006ZM97.0318 191.414H99.4798C100.162 191.414 100.69 191.254 101.064 190.934C101.437 190.614 101.624 190.171 101.624 189.606C101.624 189.041 101.437 188.598 101.064 188.278C100.69 187.958 100.152 187.798 99.4478 187.798H97.0318V191.414ZM99.6078 196.55C100.333 196.55 100.898 196.379 101.304 196.038C101.709 195.697 101.912 195.222 101.912 194.614C101.912 193.995 101.698 193.51 101.272 193.158C100.845 192.795 100.274 192.614 99.5598 192.614H97.0318V196.55H99.6078ZM106.844 185.91V197.75H105.388V185.91H106.844ZM108.782 193.334C108.782 192.438 108.963 191.654 109.326 190.982C109.688 190.299 110.184 189.771 110.814 189.398C111.454 189.025 112.163 188.838 112.942 188.838C113.71 188.838 114.376 189.003 114.942 189.334C115.507 189.665 115.928 190.081 116.206 190.582V188.982H117.678V197.75H116.206V196.118C115.918 196.63 115.486 197.057 114.91 197.398C114.344 197.729 113.683 197.894 112.926 197.894C112.147 197.894 111.443 197.702 110.814 197.318C110.184 196.934 109.688 196.395 109.326 195.702C108.963 195.009 108.782 194.219 108.782 193.334ZM116.206 193.35C116.206 192.689 116.072 192.113 115.806 191.622C115.539 191.131 115.176 190.758 114.718 190.502C114.27 190.235 113.774 190.102 113.23 190.102C112.686 190.102 112.19 190.23 111.742 190.486C111.294 190.742 110.936 191.115 110.67 191.606C110.403 192.097 110.27 192.673 110.27 193.334C110.27 194.006 110.403 194.593 110.67 195.094C110.936 195.585 111.294 195.963 111.742 196.23C112.19 196.486 112.686 196.614 113.23 196.614C113.774 196.614 114.27 196.486 114.718 196.23C115.176 195.963 115.539 195.585 115.806 195.094C116.072 194.593 116.206 194.011 116.206 193.35ZM119.594 193.35C119.594 192.443 119.776 191.654 120.138 190.982C120.501 190.299 121.002 189.771 121.642 189.398C122.293 189.025 123.034 188.838 123.866 188.838C124.944 188.838 125.829 189.099 126.522 189.622C127.226 190.145 127.69 190.87 127.914 191.798H126.346C126.197 191.265 125.904 190.843 125.466 190.534C125.04 190.225 124.506 190.07 123.866 190.07C123.034 190.07 122.362 190.358 121.85 190.934C121.338 191.499 121.082 192.305 121.082 193.35C121.082 194.406 121.338 195.222 121.85 195.798C122.362 196.374 123.034 196.662 123.866 196.662C124.506 196.662 125.04 196.513 125.466 196.214C125.893 195.915 126.186 195.489 126.346 194.934H127.914C127.68 195.83 127.21 196.55 126.506 197.094C125.802 197.627 124.922 197.894 123.866 197.894C123.034 197.894 122.293 197.707 121.642 197.334C121.002 196.961 120.501 196.433 120.138 195.75C119.776 195.067 119.594 194.267 119.594 193.35ZM134.753 197.75L131.313 193.878V197.75H129.857V185.91H131.313V192.87L134.689 188.982H136.721L132.593 193.35L136.737 197.75H134.753Z" fill="white"/>
<path d="M23.548 211.23L23.092 213.39H24.748V214.35H22.888L22.372 216.75H21.328L21.844 214.35H19.324L18.808 216.75H17.764L18.28 214.35H16.396V213.39H18.484L18.94 211.23H17.08V210.27H19.144L19.66 207.87H20.704L20.188 210.27H22.708L23.224 207.87H24.268L23.752 210.27H25.42V211.23H23.548ZM22.504 211.23H19.984L19.528 213.39H22.048L22.504 211.23ZM26.5341 209.07V208.074H28.7901V216.75H27.6861V209.07H26.5341ZM32.2499 212.238C31.8019 212.062 31.4579 211.806 31.2179 211.47C30.9779 211.134 30.8579 210.726 30.8579 210.246C30.8579 209.814 30.9659 209.426 31.1819 209.082C31.3979 208.73 31.7179 208.454 32.1419 208.254C32.5739 208.046 33.0939 207.942 33.7019 207.942C34.3099 207.942 34.8259 208.046 35.2499 208.254C35.6819 208.454 36.0059 208.73 36.2219 209.082C36.4459 209.426 36.5579 209.814 36.5579 210.246C36.5579 210.71 36.4339 211.118 36.1859 211.47C35.9379 211.814 35.5979 212.07 35.1659 212.238C35.6619 212.39 36.0539 212.658 36.3419 213.042C36.6379 213.418 36.7859 213.874 36.7859 214.41C36.7859 214.93 36.6579 215.386 36.4019 215.778C36.1459 216.162 35.7819 216.462 35.3099 216.678C34.8459 216.886 34.3099 216.99 33.7019 216.99C33.0939 216.99 32.5579 216.886 32.0939 216.678C31.6379 216.462 31.2819 216.162 31.0259 215.778C30.7699 215.386 30.6419 214.93 30.6419 214.41C30.6419 213.874 30.7859 213.414 31.0739 213.03C31.3619 212.646 31.7539 212.382 32.2499 212.238ZM35.5019 210.378C35.5019 209.89 35.3419 209.514 35.0219 209.25C34.7019 208.986 34.2619 208.854 33.7019 208.854C33.1499 208.854 32.7139 208.986 32.3939 209.25C32.0739 209.514 31.9139 209.894 31.9139 210.39C31.9139 210.838 32.0779 211.198 32.4059 211.47C32.7419 211.742 33.1739 211.878 33.7019 211.878C34.2379 211.878 34.6699 211.742 34.9979 211.47C35.3339 211.19 35.5019 210.826 35.5019 210.378ZM33.7019 212.718C33.1099 212.718 32.6259 212.858 32.2499 213.138C31.8739 213.41 31.6859 213.822 31.6859 214.374C31.6859 214.886 31.8659 215.298 32.2259 215.61C32.5939 215.922 33.0859 216.078 33.7019 216.078C34.3179 216.078 34.8059 215.922 35.1659 215.61C35.5259 215.298 35.7059 214.886 35.7059 214.374C35.7059 213.838 35.5219 213.43 35.1539 213.15C34.7859 212.862 34.3019 212.718 33.7019 212.718ZM37.9482 209.07V208.074H40.2042V216.75H39.1002V209.07H37.9482ZM43.6639 212.238C43.2159 212.062 42.8719 211.806 42.6319 211.47C42.3919 211.134 42.2719 210.726 42.2719 210.246C42.2719 209.814 42.3799 209.426 42.5959 209.082C42.8119 208.73 43.1319 208.454 43.5559 208.254C43.9879 208.046 44.5079 207.942 45.1159 207.942C45.7239 207.942 46.2399 208.046 46.6639 208.254C47.0959 208.454 47.4199 208.73 47.6359 209.082C47.8599 209.426 47.9719 209.814 47.9719 210.246C47.9719 210.71 47.8479 211.118 47.5999 211.47C47.3519 211.814 47.0119 212.07 46.5799 212.238C47.0759 212.39 47.4679 212.658 47.7559 213.042C48.0519 213.418 48.1999 213.874 48.1999 214.41C48.1999 214.93 48.0719 215.386 47.8159 215.778C47.5599 216.162 47.1959 216.462 46.7239 216.678C46.2599 216.886 45.7239 216.99 45.1159 216.99C44.5079 216.99 43.9719 216.886 43.5079 216.678C43.0519 216.462 42.6959 216.162 42.4399 215.778C42.1839 215.386 42.0559 214.93 42.0559 214.41C42.0559 213.874 42.1999 213.414 42.4879 213.03C42.7759 212.646 43.1679 212.382 43.6639 212.238ZM46.9159 210.378C46.9159 209.89 46.7559 209.514 46.4359 209.25C46.1159 208.986 45.6759 208.854 45.1159 208.854C44.5639 208.854 44.1279 208.986 43.8079 209.25C43.4879 209.514 43.3279 209.894 43.3279 210.39C43.3279 210.838 43.4919 211.198 43.8199 211.47C44.1559 211.742 44.5879 211.878 45.1159 211.878C45.6519 211.878 46.0839 211.742 46.4119 211.47C46.7479 211.19 46.9159 210.826 46.9159 210.378ZM45.1159 212.718C44.5239 212.718 44.0399 212.858 43.6639 213.138C43.2879 213.41 43.0999 213.822 43.0999 214.374C43.0999 214.886 43.2799 215.298 43.6399 215.61C44.0079 215.922 44.4999 216.078 45.1159 216.078C45.7319 216.078 46.2199 215.922 46.5799 215.61C46.9399 215.298 47.1199 214.886 47.1199 214.374C47.1199 213.838 46.9359 213.43 46.5679 213.15C46.1999 212.862 45.7159 212.718 45.1159 212.718ZM49.3623 209.07V208.074H51.6183V216.75H50.5143V209.07H49.3623ZM55.078 212.238C54.63 212.062 54.286 211.806 54.046 211.47C53.806 211.134 53.686 210.726 53.686 210.246C53.686 209.814 53.794 209.426 54.01 209.082C54.226 208.73 54.546 208.454 54.97 208.254C55.402 208.046 55.922 207.942 56.53 207.942C57.138 207.942 57.654 208.046 58.078 208.254C58.51 208.454 58.834 208.73 59.05 209.082C59.274 209.426 59.386 209.814 59.386 210.246C59.386 210.71 59.262 211.118 59.014 211.47C58.766 211.814 58.426 212.07 57.994 212.238C58.49 212.39 58.882 212.658 59.17 213.042C59.466 213.418 59.614 213.874 59.614 214.41C59.614 214.93 59.486 215.386 59.23 215.778C58.974 216.162 58.61 216.462 58.138 216.678C57.674 216.886 57.138 216.99 56.53 216.99C55.922 216.99 55.386 216.886 54.922 216.678C54.466 216.462 54.11 216.162 53.854 215.778C53.598 215.386 53.47 214.93 53.47 214.41C53.47 213.874 53.614 213.414 53.902 213.03C54.19 212.646 54.582 212.382 55.078 212.238ZM58.33 210.378C58.33 209.89 58.17 209.514 57.85 209.25C57.53 208.986 57.09 208.854 56.53 208.854C55.978 208.854 55.542 208.986 55.222 209.25C54.902 209.514 54.742 209.894 54.742 210.39C54.742 210.838 54.906 211.198 55.234 211.47C55.57 211.742 56.002 211.878 56.53 211.878C57.066 211.878 57.498 211.742 57.826 211.47C58.162 211.19 58.33 210.826 58.33 210.378ZM56.53 212.718C55.938 212.718 55.454 212.858 55.078 213.138C54.702 213.41 54.514 213.822 54.514 214.374C54.514 214.886 54.694 215.298 55.054 215.61C55.422 215.922 55.914 216.078 56.53 216.078C57.146 216.078 57.634 215.922 57.994 215.61C58.354 215.298 58.534 214.886 58.534 214.374C58.534 213.838 58.35 213.43 57.982 213.15C57.614 212.862 57.13 212.718 56.53 212.718Z" fill="white"/>
</svg>
